<svg xmlns="http://www.w3.org/2000/svg" width="152.586" height="155.937" viewBox="0 0 152.586 155.937"><defs><style>.a{fill:#5dc1d8;}.b{fill:#d9eafc;}.c{fill:#c3ddf4;}.d{fill:#3eb7ff;}.e{fill:#f87eab;}.f{fill:#1e99d6;}.g{fill:#91e0e8;}.h{fill:#fff;}.i{fill:#445ea0;}.j{fill:#293d7c;}.k{fill:#ef9614;}.l{fill:#ffd00d;}.m{fill:#ffaf10;}.n{fill:#db722c;}</style></defs><g transform="translate(-5.5)"><ellipse class="a" cx="74.618" cy="74.618" rx="74.618" ry="74.618" transform="translate(5.5 6.7)"/><path class="b" d="M154.934,155.632a2.744,2.744,0,0,1-2.741-2.741V69.34a2.744,2.744,0,0,1,2.741-2.741h38.087V1.523A1.527,1.527,0,0,0,191.5,0H104.97a1.527,1.527,0,0,0-1.523,1.523V13.94a21.731,21.731,0,0,1,0,43.249V141a74.285,74.285,0,0,0,44.787,14.933q3.412,0,6.747-.3Z" transform="translate(-68.116)"/><g transform="translate(35.331)"><path class="c" d="M103.447,184.344v83.815q2.914,2.191,6.043,4.1V182.842A21.551,21.551,0,0,1,103.447,184.344Z" transform="translate(-103.447 -127.155)"/><path class="c" d="M109.49,15.442V1.523A1.527,1.527,0,0,1,111.013,0H104.97a1.527,1.527,0,0,0-1.523,1.523V13.94A21.54,21.54,0,0,1,109.49,15.442Z" transform="translate(-103.447)"/></g><g transform="translate(43.972 26.507)"><path class="d" d="M195.473,87.033H161.221a21.541,21.541,0,0,1,1.516,4.568h32.735a2.284,2.284,0,1,0,0-4.568Z" transform="translate(-152.266 -87.033)"/><path class="d" d="M199.573,111.031H167.23c.046.577.076,1.159.076,1.748a21.814,21.814,0,0,1-.189,2.82h32.456a2.284,2.284,0,0,0,0-4.568Z" transform="translate(-156.366 -103.722)"/><path class="d" d="M194.266,135.029H161.275a21.593,21.593,0,0,1-1.789,4.568h34.78a2.284,2.284,0,0,0,0-4.568Z" transform="translate(-151.059 -120.411)"/><path class="d" d="M179.978,159.027h-36.5a21.9,21.9,0,0,1-4.536,4.562c.038,0,.076.006.115.006h40.922a2.284,2.284,0,0,0,0-4.568Z" transform="translate(-136.772 -137.1)"/><path class="d" d="M175.025,187.593H134.1a2.284,2.284,0,0,1,0-4.568h40.922a2.284,2.284,0,0,1,0,4.568Z" transform="translate(-131.818 -153.789)"/></g><g transform="translate(93.121 26.507)"><path class="e" d="M312.321,91.6H295.476a2.284,2.284,0,0,1,0-4.568h16.845a2.284,2.284,0,1,1,0,4.568Z" transform="translate(-293.192 -87.033)"/><path class="e" d="M312.321,115.6H295.476a2.284,2.284,0,0,1,0-4.568h16.845a2.284,2.284,0,1,1,0,4.568Z" transform="translate(-293.192 -103.722)"/><path class="e" d="M312.321,139.6H295.476a2.284,2.284,0,0,1,0-4.568h16.845a2.284,2.284,0,1,1,0,4.568Z" transform="translate(-293.192 -120.411)"/><path class="e" d="M312.321,163.6H295.476a2.284,2.284,0,0,1,0-4.568h16.845a2.284,2.284,0,1,1,0,4.568Z" transform="translate(-293.192 -137.1)"/><path class="e" d="M312.321,187.593H295.476a2.284,2.284,0,0,1,0-4.568h16.845a2.284,2.284,0,1,1,0,4.568Z" transform="translate(-293.192 -153.789)"/></g><g transform="translate(44.714 70.361)"><path class="d" d="M173.618,231.021H136.539a2.284,2.284,0,0,0,0,4.568h37.079Z" transform="translate(-134.255 -231.021)"/><path class="d" d="M173.618,255.02H136.539a2.284,2.284,0,0,0,0,4.568h37.079Z" transform="translate(-134.255 -247.711)"/><path class="d" d="M173.618,279.018H136.539a2.284,2.284,0,0,0,0,4.568h37.079Z" transform="translate(-134.255 -264.4)"/><path class="d" d="M173.618,303.016H136.539a2.284,2.284,0,0,0,0,4.568h37.079Z" transform="translate(-134.255 -281.089)"/><path class="d" d="M173.618,327.014H136.539a2.284,2.284,0,0,0,0,4.568h37.079Z" transform="translate(-134.255 -297.778)"/><path class="d" d="M173.618,375.01H136.539a2.284,2.284,0,0,0,0,4.568h37.079Z" transform="translate(-134.255 -331.156)"/><path class="d" d="M173.618,399.008H136.539a2.284,2.284,0,0,0,0,4.568h37.079Z" transform="translate(-134.255 -347.845)"/><path class="d" d="M173.618,423.006H136.539a2.284,2.284,0,0,0,0,4.568h37.079Z" transform="translate(-134.255 -364.534)"/><path class="d" d="M173.618,447H136.539a2.284,2.284,0,1,0,0,4.568h37.079Z" transform="translate(-134.255 -381.223)"/></g><g transform="translate(83.773 66.295)"><path class="f" d="M336.814,304.267a3.055,3.055,0,0,1-3.046,3.046H265.546a3.055,3.055,0,0,1-3.046-3.046V220.716a3.055,3.055,0,0,1,3.046-3.046h68.222a3.055,3.055,0,0,1,3.046,3.046Z" transform="translate(-262.5 -217.67)"/><path class="f" d="M268.543,304.267V220.716a3.055,3.055,0,0,1,3.046-3.046h-6.043a3.055,3.055,0,0,0-3.046,3.046v83.551a3.055,3.055,0,0,0,3.046,3.046h6.043A3.055,3.055,0,0,1,268.543,304.267Z" transform="translate(-262.5 -217.67)"/></g><g transform="translate(88.95 77.834)"><path class="g" d="M343.458,271.466a1.527,1.527,0,0,1-1.523,1.523H281.023a1.527,1.527,0,0,1-1.523-1.523V257.08a1.527,1.527,0,0,1,1.523-1.523h60.913a1.527,1.527,0,0,1,1.523,1.523Z" transform="translate(-279.5 -255.557)"/><path class="g" d="M286.353,271.466V257.08a1.527,1.527,0,0,1,1.523-1.523h-6.853a1.527,1.527,0,0,0-1.523,1.523v14.386a1.527,1.527,0,0,0,1.523,1.523h6.853A1.527,1.527,0,0,1,286.353,271.466Z" transform="translate(-279.5 -255.557)"/></g><g transform="translate(88.95 98.741)"><path class="h" d="M290.263,333.135a1.527,1.527,0,0,1-1.523,1.523h-7.717a1.527,1.527,0,0,1-1.523-1.523v-7.407a1.527,1.527,0,0,1,1.523-1.523h7.717a1.527,1.527,0,0,1,1.523,1.523Z" transform="translate(-279.5 -324.205)"/><path class="h" d="M333.929,333.135a1.527,1.527,0,0,1-1.523,1.523h-7.717a1.527,1.527,0,0,1-1.523-1.523v-7.407a1.527,1.527,0,0,1,1.523-1.523h7.717a1.527,1.527,0,0,1,1.523,1.523Z" transform="translate(-309.867 -324.205)"/><path class="h" d="M377.593,333.135a1.527,1.527,0,0,1-1.523,1.523h-7.717a1.527,1.527,0,0,1-1.523-1.523v-7.407a1.527,1.527,0,0,1,1.523-1.523h7.717a1.527,1.527,0,0,1,1.523,1.523Z" transform="translate(-340.233 -324.205)"/></g><g transform="translate(128.847 98.741)"><path class="d" d="M421.26,333.135a1.527,1.527,0,0,1-1.523,1.523H412.02a1.527,1.527,0,0,1-1.523-1.523v-7.407a1.527,1.527,0,0,1,1.523-1.523h7.717a1.527,1.527,0,0,1,1.523,1.523Z" transform="translate(-410.497 -324.205)"/><path class="d" d="M464.924,333.135a1.527,1.527,0,0,1-1.523,1.523h-7.717a1.527,1.527,0,0,1-1.523-1.523v-7.407a1.527,1.527,0,0,1,1.523-1.523H463.4a1.527,1.527,0,0,1,1.523,1.523Z" transform="translate(-440.863 -324.205)"/></g><g transform="translate(88.95 112.142)"><path class="h" d="M290.263,377.135a1.527,1.527,0,0,1-1.523,1.523h-7.717a1.527,1.527,0,0,1-1.523-1.523v-7.407a1.527,1.527,0,0,1,1.523-1.523h7.717a1.527,1.527,0,0,1,1.523,1.523Z" transform="translate(-279.5 -368.205)"/><path class="h" d="M333.929,377.135a1.527,1.527,0,0,1-1.523,1.523h-7.717a1.527,1.527,0,0,1-1.523-1.523v-7.407a1.527,1.527,0,0,1,1.523-1.523h7.717a1.527,1.527,0,0,1,1.523,1.523Z" transform="translate(-309.867 -368.205)"/><path class="h" d="M377.593,377.135a1.527,1.527,0,0,1-1.523,1.523h-7.717a1.527,1.527,0,0,1-1.523-1.523v-7.407a1.527,1.527,0,0,1,1.523-1.523h7.717a1.527,1.527,0,0,1,1.523,1.523Z" transform="translate(-340.233 -368.205)"/></g><g transform="translate(128.847 112.142)"><path class="d" d="M421.26,377.135a1.527,1.527,0,0,1-1.523,1.523H412.02a1.527,1.527,0,0,1-1.523-1.523v-7.407a1.527,1.527,0,0,1,1.523-1.523h7.717a1.527,1.527,0,0,1,1.523,1.523Z" transform="translate(-410.497 -368.205)"/><path class="d" d="M464.924,377.135a1.527,1.527,0,0,1-1.523,1.523h-7.717a1.527,1.527,0,0,1-1.523-1.523v-7.407a1.527,1.527,0,0,1,1.523-1.523H463.4a1.527,1.527,0,0,1,1.523,1.523Z" transform="translate(-440.863 -368.205)"/></g><g transform="translate(88.95 125.543)"><path class="h" d="M290.263,421.135a1.527,1.527,0,0,1-1.523,1.523h-7.717a1.527,1.527,0,0,1-1.523-1.523v-7.407a1.527,1.527,0,0,1,1.523-1.523h7.717a1.527,1.527,0,0,1,1.523,1.523Z" transform="translate(-279.5 -412.205)"/><path class="h" d="M333.929,421.135a1.527,1.527,0,0,1-1.523,1.523h-7.717a1.527,1.527,0,0,1-1.523-1.523v-7.407a1.527,1.527,0,0,1,1.523-1.523h7.717a1.527,1.527,0,0,1,1.523,1.523Z" transform="translate(-309.867 -412.205)"/><path class="h" d="M377.593,421.135a1.527,1.527,0,0,1-1.523,1.523h-7.717a1.527,1.527,0,0,1-1.523-1.523v-7.407a1.527,1.527,0,0,1,1.523-1.523h7.717a1.527,1.527,0,0,1,1.523,1.523Z" transform="translate(-340.233 -412.205)"/></g><path class="d" d="M421.26,421.135a1.527,1.527,0,0,1-1.523,1.523H412.02a1.527,1.527,0,0,1-1.523-1.523v-7.407a1.527,1.527,0,0,1,1.523-1.523h7.717a1.527,1.527,0,0,1,1.523,1.523Z" transform="translate(-281.65 -286.662)"/><g transform="translate(88.95 138.944)"><path class="h" d="M290.263,465.134a1.527,1.527,0,0,1-1.523,1.523h-7.717a1.527,1.527,0,0,1-1.523-1.523v-7.407a1.527,1.527,0,0,1,1.523-1.523h7.717a1.527,1.527,0,0,1,1.523,1.523Z" transform="translate(-279.5 -456.205)"/><path class="h" d="M333.929,465.134a1.527,1.527,0,0,1-1.523,1.523h-7.717a1.527,1.527,0,0,1-1.523-1.523v-7.407a1.527,1.527,0,0,1,1.523-1.523h7.717a1.527,1.527,0,0,1,1.523,1.523Z" transform="translate(-309.867 -456.205)"/><path class="h" d="M377.593,465.134a1.527,1.527,0,0,1-1.523,1.523h-7.717a1.527,1.527,0,0,1-1.523-1.523v-7.407a1.527,1.527,0,0,1,1.523-1.523h7.717a1.527,1.527,0,0,1,1.523,1.523Z" transform="translate(-340.233 -456.205)"/></g><g transform="translate(128.847 125.543)"><path class="d" d="M421.26,465.134a1.527,1.527,0,0,1-1.523,1.523H412.02a1.527,1.527,0,0,1-1.523-1.523v-7.407a1.527,1.527,0,0,1,1.523-1.523h7.717a1.527,1.527,0,0,1,1.523,1.523Z" transform="translate(-410.497 -442.804)"/><path class="d" d="M455.684,412.2a1.527,1.527,0,0,0-1.523,1.523v20.808a1.527,1.527,0,0,0,1.523,1.523H463.4a1.527,1.527,0,0,0,1.523-1.523V413.728A1.527,1.527,0,0,0,463.4,412.2Z" transform="translate(-440.863 -412.205)"/></g><path class="h" d="M425.747,228.89a.916.916,0,0,0-.914.914v3.471a.916.916,0,0,0,.914.914h17.868a.916.916,0,0,0,.914-.914V229.8a.916.916,0,0,0-.914-.914Z" transform="translate(-291.619 -159.178)"/><path class="b" d="M430.876,233.275V229.8a.916.916,0,0,1,.914-.914h-6.043a.916.916,0,0,0-.914.914v3.471a.916.916,0,0,0,.914.914h6.043A.916.916,0,0,1,430.876,233.275Z" transform="translate(-291.619 -159.178)"/><path class="i" d="M205.418,41h-67a.916.916,0,0,0-.914.914v4.419a21.916,21.916,0,0,1,4.132,3.8h63.785a.916.916,0,0,0,.914-.914v-7.31A.917.917,0,0,0,205.418,41Z" transform="translate(-91.798 -28.513)"/><path class="j" d="M141.632,50.137h4.756a.916.916,0,0,1-.914-.914v-7.31a.916.916,0,0,1,.914-.914h-7.975a.916.916,0,0,0-.914.914v4.419A21.906,21.906,0,0,1,141.632,50.137Z" transform="translate(-91.798 -28.513)"/><path class="a" d="M451.853,275.815h-3.046A3.811,3.811,0,0,1,445,272.007v-6.7a3.811,3.811,0,0,1,3.807-3.807h3.046a3.811,3.811,0,0,1,3.807,3.807v6.7A3.811,3.811,0,0,1,451.853,275.815Zm-2.284-4.569h1.523v-5.178h-1.523Z" transform="translate(-305.644 -181.856)"/><ellipse class="k" cx="22.035" cy="22.035" rx="22.035" ry="22.035" transform="translate(11.147 13.529)"/><ellipse class="l" cx="15.661" cy="15.661" rx="15.661" ry="15.661" transform="translate(17.521 19.903)"/><path class="m" d="M51.006,81.011a15.664,15.664,0,0,1,12.64-15.367,15.661,15.661,0,1,0,0,30.735A15.664,15.664,0,0,1,51.006,81.011Z" transform="translate(-27.444 -45.447)"/><path class="n" d="M84.517,88.275H79.464V86.847H85.7a2.284,2.284,0,0,0,0-4.568H83.725V81.249a2.284,2.284,0,1,0-4.568,0v1.029h-.793A3.472,3.472,0,0,0,74.9,85.746v3.629a3.472,3.472,0,0,0,3.468,3.468h5.053v1.427H77.18a2.284,2.284,0,0,0,0,4.568h1.976v.872a2.284,2.284,0,1,0,4.568,0v-.872h.792a3.472,3.472,0,0,0,3.468-3.468V91.742A3.472,3.472,0,0,0,84.517,88.275Z" transform="translate(-48.261 -54.915)"/></g></svg>