<?xml version="1.0"?>
<svg xmlns="http://www.w3.org/2000/svg" height="512px" viewBox="0 -66 482.045 482" width="512px"><g><path d="m475.871094 205.96875-62.597656-167.804688c-.027344-.074218-.0625-.136718-.089844-.207031-.046875-.117187-.101563-.234375-.152344-.351562-.046875-.113281-.097656-.199219-.15625-.304688s-.105469-.199219-.160156-.292969c-.058594-.089843-.132813-.207031-.203125-.304687-.066407-.101563-.117188-.175781-.175781-.257813-.074219-.101562-.152344-.195312-.230469-.289062-.074219-.09375-.132813-.164062-.207031-.242188-.070313-.082031-.160157-.167968-.242188-.253906-.082031-.082031-.160156-.15625-.246094-.234375-.082031-.074219-.164062-.144531-.246094-.214843-.085937-.070313-.1875-.148438-.28125-.21875-.097656-.074219-.175781-.125-.265624-.1875-.089844-.058594-.199219-.128907-.300782-.191407-.097656-.0625-.199218-.113281-.300781-.167969-.097656-.054687-.199219-.105468-.296875-.152343-.121094-.054688-.242188-.105469-.363281-.15625-.066407-.027344-.128907-.058594-.199219-.085938-.023438-.007812-.050781-.015625-.074219-.023437-.132812-.046875-.261719-.085938-.394531-.125-.09375-.027344-.183594-.058594-.273438-.078125-.128906-.035157-.253906-.058594-.382812-.082031-.097656-.019532-.199219-.039063-.296875-.054688-.121094-.019531-.242187-.027344-.359375-.039062-.121094-.011719-.21875-.023438-.324219-.03125-.105469-.003907-.230469 0-.34375 0-.117187 0-.226562 0-.339843 0-.109376 0-.222657.019531-.335938.03125-.109375.011718-.230469.019531-.34375.035156-.113281.019531-.214844-.082032-.320312-.0625-.042969.007812-.085938-.097656-.125-.097656h-128.5625c-1.160157-18-16.707032-33.5000005-35.660157-33.5000005s-34.5 15.5000005-35.65625 33.5000005h-128.570312c-.046875 0-.09375.105468-.136719.097656-.101562-.019532-.199219.019531-.308594 0-.109375-.019532-.234375.007812-.351562-.003906-.117188-.011719-.222656-.007813-.332032-.015626-.105468-.007812-.222656.007813-.335937.007813s-.230469 0-.347656.003906c-.113281.007813-.210938.019531-.316407.03125-.105468.011719-.242187.023438-.363281.039063-.101562.015625-.195312.039062-.292969.058594-.128906.023437-.261718.046874-.390624.078124-.085938.023438-.175782.054688-.261719.078126-.136719.042968-.269531.082031-.402344.128906-.023437.007812-.046875.015625-.070313.023437-.066406.023438-.128906.058594-.195312.082031-.125.050782-.246094.101563-.367188.160157-.101562.046875-.195312.097656-.289062.148437-.09375.050782-.207031.113282-.308594.171875-.101562.058594-.199218.125-.292968.1875-.09375.066407-.183594.125-.273438.191407-.089844.066406-.183594.140624-.273438.214843-.089843.074219-.171874.144531-.257812.21875-.082031.078125-.160156.152344-.238281.230469-.074219.078125-.167969.171875-.246094.257812-.082031.089844-.136719.15625-.203125.238282-.078125.097656-.15625.191406-.234375.296875-.058594.082031-.113281.167969-.171875.25-.070312.101562-.136719.207031-.199219.316406-.0625.105469-.109375.1875-.160156.285156-.050781.097657-.109375.199219-.160156.308594-.046875.109375-.097657.230469-.148438.347656-.027343.070313-.0625.136719-.089843.210938l-62.601563 167.804687c-3.519531.417969-6.16796875 3.402344-6.171875 6.945313 0 20.902343 7.839844 38.472656 22.675781 50.820312 13.425781 11.171875 32.121094 17.324219 52.652344 17.324219 44.640625 0 75.820313-28.023438 75.820313-68.144531.007812-3.761719-2.921876-6.878907-6.679688-7.105469l-59-158.289062h121.8125c4.101562 12.035156 14.28125 20.992187 26.738281 23.53125v220.46875h14v-220.46875c12.460938-2.539063 22.640625-11.496094 26.738281-23.53125h121.816407l-59 158.285156c-3.746094.199218-6.679688 3.292968-6.679688 7.046875 0 20.898437 7.84375 38.5 22.679688 50.847656 13.421875 11.171875 32.121093 17.339844 52.652343 17.339844 44.640626 0 75.820313-28.011719 75.820313-68.132813-.003906-3.542968-2.65625-6.527344-6.175781-6.941406zm-346.351563-.445312h-108.386719l54.1875-145.277344zm223 0 54.203125-145.277344 54.1875 145.277344zm0 0" data-original="#000000" class="active-path" data-old_color="#000000" fill="#353535"/><path d="m181.019531 328.523438h120v22h-120zm0 0" data-original="#000000" class="active-path" data-old_color="#000000" fill="#353535"/><path d="m266.4375 297.523438h-50.832031c-10.585938-.0625-19.945313 6.859374-22.984375 17h96.800781c-3.042969-10.140626-12.398437-17.0625-22.984375-17zm0 0" data-original="#000000" class="active-path" data-old_color="#000000" fill="#353535"/></g> </svg>
