<svg id="Group_1094" data-name="Group 1094" xmlns="http://www.w3.org/2000/svg" width="52" height="52" viewBox="0 0 52 52">
  <path id="Path_869" data-name="Path 869" d="M52,26.005q-.008-4.112-.016-8.224-.013-6.522-.026-13.043,0-1.5-.006-2.991A1.772,1.772,0,0,0,50.2,0H26.194a2.172,2.172,0,0,0-1.55.628c-.309.3-.61.61-.915.915L19.793,5.478,8.168,17.1C5.654,19.617,3.1,22.1.622,24.649c-.04.041-.081.081-.121.121a1.773,1.773,0,0,0,0,2.47l2.406,2.406,5.78,5.78,7.031,7.031,6.051,6.051c.981.981,1.938,2,2.948,2.948l.043.043a1.773,1.773,0,0,0,2.47,0l2.406-2.406,5.78-5.78,7.032-7.031L48.5,30.231c.981-.981,2-1.938,2.948-2.948l.043-.043a1.637,1.637,0,0,0,.259-.344A1.675,1.675,0,0,0,52,26.005Zm-5.387,1.171-5.78,5.78L33.8,39.987,27.75,46.038c-.582.582-1.187,1.153-1.776,1.735l-1.15-1.15-5.78-5.78-7.031-7.031L5.962,27.761c-.582-.582-1.153-1.186-1.735-1.776l1.15-1.15,5.78-5.78,7.031-7.032,6.051-6.051c.827-.827,1.7-1.63,2.511-2.479H48.462l.013,6.478q.013,6.521.026,13.043,0,1.135,0,2.269Z" transform="translate(0)" fill="#fff"/>
  <path id="Path_870" data-name="Path 870" d="M198.482,101.386l-6.693,6.693-10.662,10.662-2.44,2.44a1.747,1.747,0,0,0,2.47,2.47l6.693-6.693L198.511,106.3l2.44-2.44a1.747,1.747,0,1,0-2.47-2.47Z" transform="translate(-159.652 -90.395)" fill="#fff"/>
  <path id="Path_871" data-name="Path 871" d="M219.376,90.523a4.887,4.887,0,0,0,3.85-4.547,1.652,1.652,0,0,0,.008-.2,1.5,1.5,0,0,0-.007-.176,4.932,4.932,0,0,0-3.291-4.416,4.839,4.839,0,0,0-5.234,1.443,4.842,4.842,0,0,0,4.674,7.893Zm-1.817-5.831c.1-.059.212-.144.326-.2.1-.017.259-.052.3-.066h.006c.062,0,.125-.006.187-.006s.125,0,.187.006h.006c.046.014.21.049.3.066.114.055.222.139.326.2.047.041.093.082.137.126s.085.09.126.137c.059.1.144.212.2.326.017.095.052.258.066.3v.006c0,.062.006.125.006.187s0,.125-.006.187v.006c-.014.046-.049.21-.066.3-.055.114-.139.222-.2.326-.041.046-.082.093-.126.137s-.09.085-.137.126c-.1.059-.212.144-.326.2-.095.017-.258.052-.3.066h-.006c-.062,0-.125.006-.187.006s-.125,0-.187-.006h-.006c-.046-.014-.21-.049-.3-.066-.114-.055-.222-.139-.326-.2-.046-.041-.093-.082-.137-.126s-.085-.09-.126-.137c-.059-.1-.144-.212-.2-.326-.017-.095-.052-.259-.066-.3v-.006c0-.062-.006-.125-.006-.187s0-.125.006-.187v-.006c.014-.046.049-.21.066-.3.055-.114.139-.222.2-.326.041-.047.082-.093.126-.137S217.512,84.733,217.558,84.691Z" transform="translate(-191.335 -72.512)" fill="#fff"/>
  <path id="Path_872" data-name="Path 872" d="M283.227,255.94a4.932,4.932,0,0,0-3.291-4.415,4.839,4.839,0,0,0-5.234,1.443,4.846,4.846,0,1,0,8.524,3.346,1.614,1.614,0,0,0,.008-.2A1.493,1.493,0,0,0,283.227,255.94Zm-3.884,1.137c-.044.044-.091.085-.137.126-.1.059-.212.144-.326.2-.095.017-.258.052-.3.066h-.006c-.062,0-.125.006-.187.006s-.125,0-.187-.006h-.006c-.046-.014-.21-.049-.3-.066-.114-.055-.222-.139-.326-.2-.046-.041-.093-.082-.137-.126s-.085-.091-.126-.137c-.059-.1-.144-.212-.2-.326-.017-.095-.052-.258-.066-.3V256.3c0-.062-.006-.125-.006-.187s0-.125.006-.187v-.006c.014-.046.049-.21.066-.3.055-.114.139-.222.2-.326.041-.047.082-.093.126-.137s.09-.085.137-.126c.1-.059.212-.144.326-.2.095-.017.259-.052.3-.066h.006c.062,0,.125-.006.187-.006s.125,0,.187.006h.006c.046.014.21.049.3.066.114.055.222.139.326.2.047.041.093.082.137.126s.085.09.126.137c.059.1.144.212.2.326.017.095.052.258.066.3v.006c0,.062.006.125.006.187s0,.125-.006.187v.006c-.014.046-.049.21-.066.3-.055.114-.139.222-.2.326C279.428,256.986,279.386,257.033,279.342,257.077Z" transform="translate(-245.095 -225.135)" fill="#fff"/>
</svg>
