<svg xmlns="http://www.w3.org/2000/svg" width="23.425" height="20.881" viewBox="0 0 23.425 20.881">
  <g id="home" transform="translate(0.001 -27.798)">
    <g id="Group_1062" data-name="Group 1062" transform="translate(-0.001 27.798)">
      <g id="Group_1061" data-name="Group 1061" transform="translate(0 0)">
        <path id="Path_856" data-name="Path 856" d="M23.175,36.045l-11.1-8.13a.609.609,0,0,0-.719,0l-11.1,8.13a.609.609,0,0,0,.719.982L11.712,29.16l10.744,7.867a.609.609,0,0,0,.719-.982Z" transform="translate(0.001 -27.797)" fill="#fff"/>
      </g>
    </g>
    <g id="Group_1064" data-name="Group 1064" transform="translate(2.582 37.165)">
      <g id="Group_1063" data-name="Group 1063">
        <path id="Path_857" data-name="Path 857" d="M74.1,232.543a.609.609,0,0,0-.609.609v9.688H68.625v-5.288a3.043,3.043,0,0,0-6.087,0v5.288H57.669v-9.688a.609.609,0,1,0-1.217,0v10.3a.609.609,0,0,0,.609.609h6.086a.608.608,0,0,0,.606-.561.456.456,0,0,0,0-.047v-5.9a1.826,1.826,0,1,1,3.652,0v5.9a.445.445,0,0,0,0,.047.608.608,0,0,0,.606.562H74.1a.609.609,0,0,0,.609-.609v-10.3A.609.609,0,0,0,74.1,232.543Z" transform="translate(-56.452 -232.543)" fill="#fff"/>
      </g>
    </g>
  </g>
</svg>
