<svg xmlns="http://www.w3.org/2000/svg" width="89.385" height="89.424" viewBox="0 0 89.385 89.424"><defs><style>.a{fill:#2c92bf;}.b{fill:#1f81a3;}.c{fill:#e6e6e6;}.d{fill:#ffe14d;}.e{fill:#ccc;}.f{fill:#ff8e1d;}.g{fill:#ff491f;}.h{fill:#ffbe1d;}.i{fill:#3c3f4d;}.j{fill:#e2720e;}</style></defs><g transform="translate(-0.5)"><path class="a" d="M69.849,61.049v66.046a6.966,6.966,0,0,1-6.966,6.966H7.466A6.966,6.966,0,0,1,.5,127.095V61.049a6.966,6.966,0,0,1,6.966-6.966H30.814a4.362,4.362,0,1,0,8.725,0H62.884a6.966,6.966,0,0,1,6.966,6.966Zm0,0" transform="translate(0 -44.636)"/><path class="b" d="M253.594,369.9h15.655v24.82H253.594Zm0,0" transform="translate(-208.889 -305.29)"/><path class="c" d="M54.836,103.727h50.37v60.225H54.836Zm0,0" transform="translate(-44.845 -85.61)"/><path class="d" d="M119.888,6.072a9.446,9.446,0,0,0-17.646,0H95.29a2.841,2.841,0,0,0-2.841,2.841V23.592h37.23V8.913a2.841,2.841,0,0,0-2.841-2.841Zm-8.824,7.737a4.363,4.363,0,1,1,4.363-4.364A4.362,4.362,0,0,1,111.065,13.81Zm0,0" transform="translate(-75.89)"/><path class="e" d="M253.594,306.438h15.655v24.82H253.594Zm0,0" transform="translate(-208.889 -252.916)"/><path class="f" d="M279.77,306.438h40.609v35.9H279.77Zm0,0" transform="translate(-230.493 -252.916)"/><path class="g" d="M369.508,323.592l-7.117-4.015-7.117,4.015V306.437h14.235Zm0,0" transform="translate(-292.809 -252.916)"/><path class="h" d="M171.949,32.736A5.731,5.731,0,1,1,177.682,27,5.738,5.738,0,0,1,171.949,32.736Zm0-8.725A2.994,2.994,0,1,0,174.944,27,3,3,0,0,0,171.949,24.011Zm0,0" transform="translate(-136.774 -17.558)"/><path class="g" d="M92,196.515a1.369,1.369,0,0,1-1.166-.652l-3.1-5.047a1.369,1.369,0,0,1,2.333-1.434l1.84,2.994,3.08-5.893a1.369,1.369,0,1,1,2.426,1.268l-4.2,8.029a1.369,1.369,0,0,1-1.165.734Zm0,0" transform="translate(-71.827 -153.306)"/><path class="i" d="M179.559,211.476H162.04a1.369,1.369,0,0,1,0-2.738h17.52a1.369,1.369,0,0,1,0,2.738Zm0,0" transform="translate(-132.196 -172.281)"/><path class="g" d="M92,285.9a1.37,1.37,0,0,1-1.166-.652l-3.1-5.047a1.369,1.369,0,1,1,2.333-1.433l1.84,2.994,3.08-5.894a1.369,1.369,0,0,1,2.426,1.268l-4.2,8.03a1.369,1.369,0,0,1-1.165.733H92Zm0,0" transform="translate(-71.827 -227.077)"/><path class="i" d="M179.559,300.858H162.04a1.369,1.369,0,0,1,0-2.737h17.52a1.369,1.369,0,1,1,0,2.737Zm0,0" transform="translate(-132.196 -246.052)"/><path class="j" d="M279.77,493.259l20.3-3.966,20.3,3.966Zm0,0" transform="translate(-230.493 -403.835)"/></g></svg>