<?xml version="1.0"?>
<svg xmlns="http://www.w3.org/2000/svg" xmlns:xlink="http://www.w3.org/1999/xlink" version="1.1" id="Capa_1" x="0px" y="0px" viewBox="0 0 466.415 466.415" style="enable-background:new 0 0 466.415 466.415;" xml:space="preserve" width="512px" height="512px"><g><g>
	<g>
		<path d="M464.8,309.008c-3.1-4.6-9.2-5.8-13.8-2.7l-74.6,48.9h-98.2v-41h101.2c2.1,0,4.2-0.8,5.8-2l77-55.6    c4.5-3.2,5.5-9.5,2.2-13.9c-3.2-4.5-9.5-5.5-13.9-2.2l-74.3,53.7h-98v-42h101.2c2.2,0.1,4.4-0.6,6.2-1.9l77-60.7    c4.3-3.5,5-9.8,1.5-14.1c-3.4-4.3-9.6-5-13.9-1.7l-74.3,58.4h-97.7v-40h101.2c2.5-0.1,5-1.1,6.8-2.8l77-71.4c3-2.9,4-7.3,2.5-11.2    c-1.5-3.9-5.2-6.5-9.3-6.6H361c-0.1,0-0.3-1.8-0.6-2.6c-1.5-3.8-5.2-6.4-9.3-6.4h-153c-2.5,0-5,1-6.8,2.7l-6.7,6.3H87    c-2.5,0.1-5,1.1-6.8,2.9l-77,71.3c-3,2.9-4,7.3-2.5,11.2c1.5,3.9,5.2,6.5,9.3,6.6h95.2v40H10c-5.5,0-10,4.5-10,10s4.5,10,10,10    h95.2v42H10c-5.5,0-10,4.5-10,10s4.5,10,10,10h95.2v41H10c-5.5,0-10,4.5-10,10s4.5,10,10,10h369.4c2-0.1,3.9-0.7,5.5-1.9l77-50.4    C466.5,319.908,467.8,313.608,464.8,309.008z M345.9,120.208h85l-55.4,52h-85.1l55.1-51.6    C345.6,120.608,345.7,120.208,345.9,120.208z M108,172.208H35.5l55.4-52h72.2l-54.6,51.2C108.3,171.508,108.2,171.208,108,172.208    z M258.2,178.708v176.5h-133v-172.1l68.5-63.9l8.3-8h123.7l-64.3,59.9C259.3,173.108,258.2,175.808,258.2,178.708z" data-original="#000000" class="active-path" data-old_color="#000000" fill="#353535"/>
	</g>
</g><g>
	<g>
		<path d="M191.1,221.608c0,0,0.1,0,0.2,0c9.1,0,16.5,7.4,16.5,16.5c-0.1,5.5,4.4,10,9.9,10.1s10-4.4,10.1-9.9c0-0.1,0-0.1,0-0.2    c-0.2-16.3-10.9-30.5-26.6-35.1v-6.5c0-5.5-4.5-10-10-10s-10,4.5-10,10v6.5c-19.4,5.5-30.6,25.8-25.1,45.1    c4.5,15.7,18.8,26.5,35.1,26.5c9.1,0,16.5,7.4,16.5,16.5c0,9.1-7.4,16.5-16.5,16.5c-9.1,0-16.5-7.4-16.5-16.5c0-5.5-4.5-10-10-10    s-10,4.5-10,10c0.1,16.3,10.9,30.5,26.5,35.1v6.5c0,5.5,4.5,10,10,10s10-4.5,10-10v-6.5c15.6-4.6,26.4-18.8,26.6-35.1    c0-20.2-16.3-36.5-36.5-36.5c-9.1,0.1-16.6-7.3-16.6-16.4C174.6,229.108,182,221.608,191.1,221.608z" data-original="#000000" class="active-path" data-old_color="#000000" fill="#353535"/>
	</g>
</g></g> </svg>
