<svg xmlns="http://www.w3.org/2000/svg" width="71.515" height="52" viewBox="0 0 71.515 52">
  <g id="notes" transform="translate(0 -7.914)">
    <path id="Path_802" data-name="Path 802" d="M69.146,17.99,6.165,7.914v5.339l-3.7-.3v5.034H0V59.914H71.515V17.991H69.146ZM8.631,10.805l33.047,5.287L8.631,13.449Zm-3.7,4.821,1.233.1h0l8.331.666,19.979,1.6H4.932Zm64.117,41.82H2.466V20.456H69.049Z" transform="translate(0 0)" fill="#fff"/>
    <path id="Path_803" data-name="Path 803" d="M7.316,27.717A4.316,4.316,0,1,0,3,23.4,4.32,4.32,0,0,0,7.316,27.717Zm0-6.165a1.85,1.85,0,1,1-1.85,1.85A1.852,1.852,0,0,1,7.316,21.552Z" transform="translate(0.699 2.603)" fill="#fff"/>
    <path id="Path_804" data-name="Path 804" d="M48,23.4a4.316,4.316,0,1,0,4.316-4.316A4.32,4.32,0,0,0,48,23.4Zm6.165,0a1.85,1.85,0,1,1-1.85-1.85A1.852,1.852,0,0,1,54.165,23.4Z" transform="translate(11.185 2.603)" fill="#fff"/>
    <path id="Path_805" data-name="Path 805" d="M7.316,40.086A4.316,4.316,0,1,0,11.631,44.4,4.32,4.32,0,0,0,7.316,40.086Zm0,6.165a1.85,1.85,0,1,1,1.85-1.85A1.852,1.852,0,0,1,7.316,46.251Z" transform="translate(0.699 7.497)" fill="#fff"/>
    <path id="Path_806" data-name="Path 806" d="M52.316,40.086A4.316,4.316,0,1,0,56.631,44.4,4.32,4.32,0,0,0,52.316,40.086Zm0,6.165a1.85,1.85,0,1,1,1.85-1.85A1.852,1.852,0,0,1,52.316,46.251Z" transform="translate(11.185 7.497)" fill="#fff"/>
    <path id="Path_807" data-name="Path 807" d="M37.734,53.311c.152-.028.3-.051.455-.083q.681-.146,1.348-.348c.2-.062.4-.133.605-.2.261-.09.522-.184.779-.286.222-.088.443-.178.66-.274.244-.11.485-.229.725-.35.335-.169.663-.346.986-.536l.148-.088h13.49l-.12-1.342c-.012-.168-.025-.335-.025-.508a5.555,5.555,0,0,1,5.549-5.549c.17,0,.337.011.5.026l1.346.123V28.8l-1.346.123c-.166.015-.334.026-.5.026A5.555,5.555,0,0,1,56.787,23.4c0-.171.012-.34.026-.508l.12-1.342H43.438a17.1,17.1,0,0,0-17.691,0h-13.5l.123,1.345c.015.168.026.334.026.5A5.555,5.555,0,0,1,6.85,28.95c-.17,0-.338-.011-.5-.026L5,28.8V43.9l1.345-.123c.166-.015.334-.026.5-.026A5.555,5.555,0,0,1,12.4,49.295c0,.17-.011.338-.026.5l-.123,1.345H25.717q.294.178.593.343c.062.035.126.065.189.1q.6.32,1.222.589c.095.041.189.083.284.122.47.195.946.372,1.432.525l.037.012c.5.155,1.012.285,1.528.393.121.026.244.046.366.068q.6.113,1.2.184c.147.017.292.036.44.049.524.048,1.051.08,1.582.08s1.037-.032,1.552-.079c.16-.015.319-.033.478-.052C37,53.437,37.365,53.379,37.734,53.311Zm-6.556-2.579c-.078-.018-.155-.041-.233-.06-.4-.1-.8-.221-1.19-.355-.181-.063-.361-.128-.54-.2-.282-.108-.557-.232-.832-.358-.134-.063-.268-.127-.4-.194l3.27-1.61A2.046,2.046,0,0,0,32.4,46.111V44.071l-.745-.321a5.535,5.535,0,0,1-3.144-3.989l-.176-.657-.65-.2a.908.908,0,0,1-.651-.864V36.964a.916.916,0,0,1,.5-.8l.58-.308.068-.652a9.835,9.835,0,0,1,.656-2.715c.142-.346.263-.605.36-.815a3.386,3.386,0,0,0,.441-1.8,7.881,7.881,0,0,0,4.259.782c.162-.014.328-.02.5-.02,3.921,0,5.835,1.413,6.207,4.581l.075.644.573.3a.918.918,0,0,1,.5.8v1.074a.908.908,0,0,1-.651.864l-.65.2-.176.657a5.532,5.532,0,0,1-3.144,3.989l-.745.321v2.049A2.054,2.054,0,0,0,37.5,47.955l3.424,1.75c-.046.022-.09.044-.137.065-.427.2-.861.375-1.3.529l-.158.058A15.109,15.109,0,0,1,31.178,50.731ZM46.66,24.018h7.684a8.027,8.027,0,0,0,7.375,7.375V41.3a8.027,8.027,0,0,0-7.375,7.375H46.66c.018-.019.035-.038.053-.057.211-.208.406-.432.605-.651s.392-.412.572-.63c.069-.084.129-.175.2-.26a17.088,17.088,0,0,0,3.658-8.852c0-.041.014-.08.018-.121a17.314,17.314,0,0,0,.09-1.76c0-.593-.031-1.18-.089-1.761,0-.041-.014-.08-.018-.121a17.1,17.1,0,0,0-3.658-8.852c-.068-.085-.128-.176-.2-.26-.181-.217-.38-.42-.572-.63s-.395-.443-.605-.651A.769.769,0,0,1,46.66,24.018ZM42.5,23.864a15.02,15.02,0,0,1,2.748,2.244c.111.115.215.236.322.354.265.292.515.6.756.906.125.163.25.326.369.493.224.318.43.649.629.983.088.147.184.287.266.438a14.488,14.488,0,0,1,.679,1.433c.076.185.138.376.207.563.126.345.243.693.344,1.048.058.2.11.408.158.614.089.375.16.755.219,1.137.028.181.062.361.084.545a15.121,15.121,0,0,1,.109,1.726,14.808,14.808,0,0,1-.11,1.725c-.021.184-.055.363-.084.545-.059.383-.131.763-.219,1.137-.049.206-.1.412-.158.614-.1.355-.217.7-.344,1.048-.069.189-.131.38-.207.563a14.775,14.775,0,0,1-.679,1.433c-.083.15-.179.291-.266.438-.2.334-.4.665-.629.983-.118.168-.244.33-.369.493-.239.311-.491.614-.756.906-.107.118-.211.239-.322.354a14.955,14.955,0,0,1-1.926,1.652,4.734,4.734,0,0,0-.656-.419l-3.822-1.952v-.224a7.9,7.9,0,0,0,3.636-4.669,3.353,3.353,0,0,0,1.731-2.94V36.961a3.355,3.355,0,0,0-1.249-2.609c-.515-2.948-2.472-6.187-8.572-6.187-.238,0-.471.009-.7.027a5.285,5.285,0,0,1-3.359-.769,4.167,4.167,0,0,1-.947-.82A1.447,1.447,0,0,0,26.81,27.66c.047.406.115.878.217,1.395.2,1,.2,1-.072,1.575-.11.237-.247.53-.407.921a12,12,0,0,0-.755,2.817,3.357,3.357,0,0,0-1.228,2.593v1.074a3.352,3.352,0,0,0,1.731,2.94,7.9,7.9,0,0,0,3.636,4.669v.211L25.97,47.808a4.305,4.305,0,0,0-.365.247,15,15,0,0,1-1.671-1.469c-.111-.115-.215-.236-.322-.354-.265-.292-.515-.6-.756-.906-.125-.163-.25-.326-.369-.493-.224-.318-.43-.649-.629-.983-.088-.147-.184-.287-.266-.438a14.49,14.49,0,0,1-.679-1.433c-.076-.185-.138-.376-.207-.563-.126-.345-.243-.693-.344-1.048-.058-.2-.11-.408-.158-.614-.089-.375-.16-.755-.219-1.137-.028-.181-.062-.361-.084-.545a15.912,15.912,0,0,1-.1-1.724,14.79,14.79,0,0,1,.11-1.725c.021-.184.055-.363.084-.545.059-.383.131-.763.219-1.137.049-.206.1-.412.158-.614.1-.355.217-.7.344-1.048.069-.189.131-.38.207-.563a14.774,14.774,0,0,1,.679-1.433c.083-.15.179-.291.266-.438.2-.334.4-.665.629-.983.118-.168.244-.33.369-.493.239-.311.491-.614.756-.906.107-.118.211-.239.322-.354a15.02,15.02,0,0,1,2.748-2.244,14.676,14.676,0,0,1,15.811,0ZM14.841,48.678A8.028,8.028,0,0,0,7.466,41.3V31.393a8.027,8.027,0,0,0,7.375-7.375h7.684c-.018.018-.035.038-.053.057-.211.208-.406.432-.605.651s-.392.412-.572.63c-.069.084-.129.175-.2.26a17.088,17.088,0,0,0-3.658,8.852c0,.041-.014.08-.018.121a17.331,17.331,0,0,0-.09,1.76c0,.592.031,1.18.089,1.761,0,.041.014.08.018.121A17.1,17.1,0,0,0,21.1,47.082c.068.085.128.176.2.26.181.217.38.42.572.63s.395.443.605.651c.018.018.035.038.053.057H14.841Z" transform="translate(1.165 2.603)" fill="#fff"/>
  </g>
</svg>
