<svg xmlns="http://www.w3.org/2000/svg" width="22.007" height="22.912" viewBox="0 0 22.007 22.912">
  <g id="Promotions" transform="translate(-10.111 -0.001)">
    <g id="Group_1070" data-name="Group 1070" transform="translate(10.111 0.001)">
      <g id="Group_1069" data-name="Group 1069">
        <path id="Path_876" data-name="Path 876" d="M30.926,11.837a.7.7,0,0,1,0-.761l.837-1.286a2.193,2.193,0,0,0-1.054-3.244L29.275,6a.7.7,0,0,1-.447-.615L28.749,3.85a2.193,2.193,0,0,0-2.76-2l-1.482.4a.7.7,0,0,1-.723-.235L22.82.815a2.193,2.193,0,0,0-3.411,0l-.965,1.193a.7.7,0,0,1-.723.235l-1.482-.4a2.193,2.193,0,0,0-2.76,2L13.4,5.382A.7.7,0,0,1,12.953,6l-1.433.549A2.193,2.193,0,0,0,10.466,9.79l.837,1.286a.7.7,0,0,1,0,.761l-.837,1.286a2.193,2.193,0,0,0,1.054,3.244l1.433.549a.7.7,0,0,1,.447.615l.079,1.532a2.193,2.193,0,0,0,2.76,2l1.482-.4a.7.7,0,0,1,.724.235l.965,1.193a2.193,2.193,0,0,0,3.411,0l.965-1.193a.7.7,0,0,1,.723-.235l1.482.4a2.193,2.193,0,0,0,2.76-2l.079-1.532a.7.7,0,0,1,.447-.615l1.433-.549a2.193,2.193,0,0,0,1.054-3.244Zm-.752,3.133-1.433.549a2.195,2.195,0,0,0-1.406,1.935l-.079,1.532a.7.7,0,0,1-.878.638l-1.482-.4a2.194,2.194,0,0,0-2.275.739l-.965,1.193a.7.7,0,0,1-1.085,0l-.965-1.193a2.193,2.193,0,0,0-2.275-.739l-1.482.4a.7.7,0,0,1-.878-.638l-.079-1.532a2.195,2.195,0,0,0-1.406-1.935l-1.433-.549a.7.7,0,0,1-.335-1.032l.837-1.286a2.195,2.195,0,0,0,0-2.392L11.72,8.975a.7.7,0,0,1,.335-1.032l1.433-.549a2.195,2.195,0,0,0,1.406-1.935l.079-1.532a.7.7,0,0,1,.878-.638l1.482.4a2.194,2.194,0,0,0,2.275-.739l.965-1.193a.7.7,0,0,1,1.085,0l.965,1.193a2.194,2.194,0,0,0,2.275.739l1.482-.4a.7.7,0,0,1,.878.638l.079,1.532a2.195,2.195,0,0,0,1.406,1.935l1.433.549a.7.7,0,0,1,.335,1.032l-.837,1.286a2.194,2.194,0,0,0,0,2.392l.837,1.286A.7.7,0,0,1,30.174,14.97Z" transform="translate(-10.111 -0.001)" fill="#fff"/>
      </g>
    </g>
    <g id="Group_1072" data-name="Group 1072" transform="translate(16.594 7.427)">
      <g id="Group_1071" data-name="Group 1071">
        <path id="Path_877" data-name="Path 877" d="M163.249,166.17a.748.748,0,0,0-1.058,0l-6.98,6.98a.748.748,0,1,0,1.058,1.058l6.98-6.98A.748.748,0,0,0,163.249,166.17Z" transform="translate(-154.993 -165.951)" fill="#fff"/>
      </g>
    </g>
    <g id="Group_1074" data-name="Group 1074" transform="translate(16.594 7.427)">
      <g id="Group_1073" data-name="Group 1073">
        <path id="Path_878" data-name="Path 878" d="M156.489,165.95a1.5,1.5,0,1,0,1.5,1.5A1.5,1.5,0,0,0,156.489,165.95Z" transform="translate(-154.993 -165.95)" fill="#fff"/>
      </g>
    </g>
    <g id="Group_1076" data-name="Group 1076" transform="translate(22.078 12.911)">
      <g id="Group_1075" data-name="Group 1075">
        <path id="Path_879" data-name="Path 879" d="M279.034,288.5a1.5,1.5,0,1,0,1.5,1.5A1.5,1.5,0,0,0,279.034,288.5Z" transform="translate(-277.538 -288.495)" fill="#fff"/>
      </g>
    </g>
  </g>
</svg>
