<svg xmlns="http://www.w3.org/2000/svg" width="149.237" height="155.937" viewBox="0 0 149.237 155.937"><defs><style>.a{fill:#445ea0;}.b{fill:#ffaf10;}.c{fill:#ef9614;}.d{fill:#ff9518;}.e{fill:#ef8318;}.f{fill:#d9eafc;}.g{fill:#c3ddf4;}.h{fill:#db722c;}.i{fill:#52bbef;}.j{fill:#fe3745;}.k{fill:#91e0e8;}.l{fill:#37c47a;}</style></defs><g transform="translate(-11)"><ellipse class="a" cx="74.618" cy="74.618" rx="74.618" ry="74.618" transform="translate(11 6.7)"/><path class="b" d="M70.757,177.966a1.527,1.527,0,0,1-1.523-1.523V71.247H59.158a1.527,1.527,0,0,0-1.523,1.523V174.661a75.052,75.052,0,0,0,14.34,14.9h84.181a1.527,1.527,0,0,0,1.523-1.523V177.966Z" transform="translate(-32.432 -49.548)"/><path class="c" d="M63.422,72.77a1.527,1.527,0,0,1,1.523-1.523H59.158a1.527,1.527,0,0,0-1.523,1.523V174.661a75.256,75.256,0,0,0,5.787,7.031Z" transform="translate(-32.432 -49.548)"/><path class="d" d="M105.32,142.488a1.527,1.527,0,0,1-1.523-1.523V36H94.406a1.527,1.527,0,0,0-1.523,1.523V152.792a1.527,1.527,0,0,0,1.523,1.523h97a1.527,1.527,0,0,0,1.523-1.523v-10.3Z" transform="translate(-56.944 -25.034)"/><path class="e" d="M98.365,152.792V37.521A1.527,1.527,0,0,1,99.888,36H94.406a1.527,1.527,0,0,0-1.523,1.523V152.792a1.527,1.527,0,0,0,1.523,1.523h5.482A1.527,1.527,0,0,1,98.365,152.792Z" transform="translate(-56.944 -25.034)"/><path class="f" d="M225.927,116.794a1.527,1.527,0,0,1-1.523,1.523h-97a1.527,1.527,0,0,1-1.523-1.523V1.523A1.527,1.527,0,0,1,127.406,0h97a1.527,1.527,0,0,1,1.523,1.523Z" transform="translate(-79.894)"/><path class="g" d="M131.926,116.794V1.523A1.527,1.527,0,0,1,133.449,0H127.4a1.527,1.527,0,0,0-1.523,1.523V116.794a1.527,1.527,0,0,0,1.523,1.523h6.044A1.527,1.527,0,0,1,131.926,116.794Z" transform="translate(-79.893)"/><g transform="translate(110.602 10.902)"><path class="h" d="M361.5,40.362H340.313a2.284,2.284,0,1,1,0-4.568H361.5a2.284,2.284,0,0,1,0,4.568Z" transform="translate(-338.029 -35.794)"/><path class="h" d="M361.5,65.861H340.313a2.284,2.284,0,1,1,0-4.568H361.5a2.284,2.284,0,0,1,0,4.568Z" transform="translate(-338.029 -53.527)"/><path class="h" d="M361.5,91.359H340.313a2.284,2.284,0,1,1,0-4.568H361.5a2.284,2.284,0,0,1,0,4.568Z" transform="translate(-338.029 -71.259)"/><path class="h" d="M361.5,116.858H340.313a2.284,2.284,0,1,1,0-4.568H361.5a2.284,2.284,0,0,1,0,4.568Z" transform="translate(-338.029 -88.992)"/></g><g transform="translate(56.605 88.409)"><path class="i" d="M198.7,294.849H163.022a2.284,2.284,0,0,1,0-4.568H198.7a2.284,2.284,0,0,1,0,4.568Z" transform="translate(-160.738 -290.281)"/><path class="i" d="M198.7,320.347H163.022a2.284,2.284,0,0,1,0-4.568H198.7a2.284,2.284,0,0,1,0,4.568Z" transform="translate(-160.738 -308.013)"/><path class="i" d="M198.7,345.846H163.022a2.284,2.284,0,1,1,0-4.568H198.7a2.284,2.284,0,0,1,0,4.568Z" transform="translate(-160.738 -325.746)"/></g><g transform="translate(54.787 47.752)"><path class="j" d="M335.649,161.356H303.142a2.284,2.284,0,1,1,0-4.568h32.507a2.284,2.284,0,1,1,0,4.568Z" transform="translate(-256.365 -156.788)"/><path class="j" d="M335.649,186.855H303.142a2.284,2.284,0,1,1,0-4.568h32.507a2.284,2.284,0,1,1,0,4.568Z" transform="translate(-256.365 -174.521)"/><path class="j" d="M335.649,212.353H303.142a2.284,2.284,0,1,1,0-4.568h32.507a2.284,2.284,0,1,1,0,4.568Z" transform="translate(-256.365 -192.253)"/><path class="j" d="M335.649,237.851H303.142a2.284,2.284,0,1,1,0-4.568h32.507a2.284,2.284,0,1,1,0,4.568Z" transform="translate(-256.365 -209.985)"/><path class="j" d="M154.77,175.084h8.906a8.906,8.906,0,0,1,8.906-8.906v-8.905A17.812,17.812,0,0,0,154.77,175.084Z" transform="translate(-154.77 -157.125)"/></g><path class="k" d="M228.084,142.442v8.906a8.906,8.906,0,0,1,8.906,8.906H245.9A17.812,17.812,0,0,0,228.084,142.442Z" transform="translate(-150.968 -99.059)"/><g transform="translate(54.787 12.88)"><path class="b" d="M181.488,215.755a8.906,8.906,0,1,1-17.811,0H154.77a17.812,17.812,0,0,0,35.624,0Z" transform="translate(-154.77 -162.924)"/><path class="b" d="M171.542,64.473V43.2a.916.916,0,0,0-.914-.914h-5.538a.916.916,0,0,0-.914.914V64.473Z" transform="translate(-161.312 -42.29)"/></g><path class="j" d="M210.66,77.686V62.2a.916.916,0,0,0-.914-.914h-5.537a.916.916,0,0,0-.914.914V77.686Z" transform="translate(-133.729 -42.623)"/><path class="l" d="M249.776,93.681V85.2a.916.916,0,0,0-.914-.914h-5.537a.916.916,0,0,0-.914.914v8.477Z" transform="translate(-160.931 -58.618)"/><path class="k" d="M288.892,64.473V43.2a.916.916,0,0,0-.914-.914h-5.538a.916.916,0,0,0-.914.914V64.473Z" transform="translate(-188.134 -29.41)"/><path class="j" d="M352.776,290.806a.915.915,0,0,1,.914-.914h4.13V279.671a1.527,1.527,0,0,0-1.523-1.523H342.555a1.527,1.527,0,0,0-1.523,1.523v13.742a1.527,1.527,0,0,0,1.523,1.523h10.221Z" transform="translate(-229.516 -193.434)"/><path class="l" d="M389.013,324.606a1.527,1.527,0,0,1-1.523,1.523h-8.375a1.527,1.527,0,0,1-1.523-1.523v-8.375a1.527,1.527,0,0,1,1.523-1.523h8.375a1.527,1.527,0,0,1,1.523,1.523Z" transform="translate(-254.941 -218.859)"/><path class="i" d="M200.047,116.858H153.792a2.284,2.284,0,1,1,0-4.568h46.255a2.284,2.284,0,1,1,0,4.568Z" transform="translate(-97.714 -78.09)"/></g></svg>