<svg id="Reports" xmlns="http://www.w3.org/2000/svg" width="20" height="20" viewBox="0 0 20 20">
  <path id="Path_884" data-name="Path 884" d="M19.885,5.886,15.7.237a.586.586,0,0,0-.942,0L10.575,5.886a.586.586,0,0,0,.471.935h1.506V9.652a2.14,2.14,0,0,0-.983-.238H10.523a2.157,2.157,0,0,0-2.155,2.155V12.79a2.14,2.14,0,0,0-.983-.238H6.339a2.157,2.157,0,0,0-2.155,2.155v1.221A2.143,2.143,0,0,0,3.2,15.69H2.155A2.157,2.157,0,0,0,0,17.845v1.569A.586.586,0,0,0,.586,20H17.322a.586.586,0,0,0,.586-.586V6.82h1.506a.586.586,0,0,0,.471-.935ZM1.172,17.845a.984.984,0,0,1,.983-.983H3.2a.984.984,0,0,1,.983.983v.983H1.172Zm4.184,0V14.707a.984.984,0,0,1,.983-.983H7.385a.984.984,0,0,1,.983.983v4.121H5.356ZM9.54,14.707V11.569a.984.984,0,0,1,.983-.983h1.046a.984.984,0,0,1,.983.983v7.259H9.54Zm7.782-9.059a.586.586,0,0,0-.586.586V18.828H13.724V6.234a.586.586,0,0,0-.586-.586h-.929L15.23,1.57l3.021,4.078Zm0,0" fill="#fff"/>
</svg>
