<svg xmlns="http://www.w3.org/2000/svg" width="148.021" height="154" viewBox="0 0 148.021 154"><defs><style>.a{fill:#ff9518;}.b{fill:#445ea0;}.c{fill:#293d7c;}.d{fill:#1a2b63;}.e{fill:#c3ddf4;}.f{fill:#aec1ed;}.g{fill:#fff;}.h{fill:#d9eafc;}.i{fill:#0f9390;}.j{fill:#52bbef;}.k{fill:#85a0dd;}.l{fill:#91e0e8;}.m{fill:#5dc1d8;}.n{fill:#eef6ff;}</style></defs><g transform="translate(-9.94)"><circle class="a" cx="73.691" cy="73.691" r="73.691" transform="translate(10.578 6.617)"/><rect class="b" width="28.379" height="12.208" transform="translate(55.83 116.854)"/><path class="c" d="M173.307,434.47a1.508,1.508,0,0,1-1.5,1.5H119.89a1.508,1.508,0,0,1-1.5-1.5v-4.875a1.508,1.508,0,0,1,1.5-1.5H171.8a1.508,1.508,0,0,1,1.5,1.5v4.875Z" transform="translate(-75.827 -299.329)"/><path class="d" d="M124.354,434.47v-4.875a1.508,1.508,0,0,1,1.5-1.5H119.89a1.508,1.508,0,0,0-1.5,1.5v4.875a1.508,1.508,0,0,0,1.5,1.5h5.968A1.508,1.508,0,0,1,124.354,434.47Z" transform="translate(-75.827 -299.329)"/><path class="c" d="M112.5,330.888H9.94v14.623a3.017,3.017,0,0,0,3.008,3.008H112.5V330.888Z" transform="translate(0 -231.363)"/><path class="d" d="M15.908,345.511V330.888H9.94v14.623a3.017,3.017,0,0,0,3.008,3.008h5.968A3.017,3.017,0,0,1,15.908,345.511Z" transform="translate(0 -231.363)"/><path class="b" d="M127.209,105.259H115.185v32.862a2.843,2.843,0,0,0-2.824,2.844v26.683H24.217V105.259H12.828a2.9,2.9,0,0,0-2.888,2.888v65.278H112.5v-32.46a2.847,2.847,0,0,1,2.844-2.844H130.1V108.147A2.9,2.9,0,0,0,127.209,105.259Z" transform="translate(0 -73.599)"/><g transform="translate(15.717 37.436)"><path class="c" d="M37.647,124.464h-7a1.508,1.508,0,0,0-1.5,1.5v53.6a1.508,1.508,0,0,0,1.5,1.5h7V124.464Z" transform="translate(-29.147 -124.464)"/><path class="c" d="M367.478,124.464h-7.631v27.093c.054,0,.107-.008.161-.008h8.974V125.968A1.508,1.508,0,0,0,367.478,124.464Z" transform="translate(-260.379 -124.464)"/></g><path class="d" d="M35.115,179.572v-53.6a1.508,1.508,0,0,1,1.5-1.5H30.651a1.508,1.508,0,0,0-1.5,1.5v53.6a1.508,1.508,0,0,0,1.5,1.5h5.968A1.508,1.508,0,0,1,35.115,179.572Z" transform="translate(-13.43 -87.028)"/><circle class="b" cx="3.655" cy="3.655" r="3.655" transform="translate(66.363 104.93)"/><path class="e" d="M90.08,19.705a1.343,1.343,0,0,1,1.339-1.339h34.532V1.584A1.588,1.588,0,0,0,124.368,0H58.491a1.588,1.588,0,0,0-1.584,1.584V94.049H90.08Z" transform="translate(-32.84)"/><path class="f" d="M64.459,0H58.491a1.588,1.588,0,0,0-1.584,1.584V94.049h5.968V1.584A1.588,1.588,0,0,1,64.459,0Z" transform="translate(-32.84)"/><path class="g" d="M221.76,109.362a2.847,2.847,0,0,1,2.833-2.844V61.4a1.343,1.343,0,0,0-1.339-1.339H167.536A1.343,1.343,0,0,0,166.2,61.4v74.644H221.76V109.362Z" transform="translate(-109.258 -41.996)"/><path class="h" d="M173.5,60.062h-5.968A1.343,1.343,0,0,0,166.2,61.4v74.644h5.968V61.4A1.343,1.343,0,0,1,173.5,60.062Z" transform="translate(-109.258 -41.996)"/><path class="i" d="M195.183,137.37a2.256,2.256,0,0,1-1.7-.77l-3.609-4.123a2.256,2.256,0,1,1,3.395-2.972l1.912,2.184,3.04-3.473a2.256,2.256,0,1,1,3.395,2.972L196.88,136.6A2.256,2.256,0,0,1,195.183,137.37Z" transform="translate(-125.424 -89.113)"/><g transform="translate(79.709 38.076)"><path class="j" d="M268.317,131.1H244.156a2.256,2.256,0,0,1,0-4.512h24.161a2.256,2.256,0,0,1,0,4.512Z" transform="translate(-241.9 -126.591)"/><path class="j" d="M268.317,151.665H244.156a2.256,2.256,0,1,1,0-4.512h24.161a2.256,2.256,0,0,1,0,4.512Z" transform="translate(-241.9 -140.968)"/></g><path class="i" d="M195.183,199.057a2.256,2.256,0,0,1-1.7-.77l-3.609-4.122a2.256,2.256,0,0,1,3.395-2.972l1.912,2.184,3.04-3.473a2.256,2.256,0,1,1,3.395,2.972l-4.737,5.411A2.255,2.255,0,0,1,195.183,199.057Z" transform="translate(-125.424 -132.246)"/><g transform="translate(79.709 56.63)"><path class="j" d="M268.317,192.788H244.156a2.256,2.256,0,1,1,0-4.512h24.161a2.256,2.256,0,0,1,0,4.512Z" transform="translate(-241.9 -188.276)"/><path class="j" d="M268.317,213.351H244.156a2.256,2.256,0,0,1,0-4.512h24.161a2.256,2.256,0,0,1,0,4.512Z" transform="translate(-241.9 -202.654)"/></g><path class="i" d="M195.183,260.742h0a2.257,2.257,0,0,1-1.7-.77l-3.609-4.123a2.256,2.256,0,1,1,3.395-2.972l1.912,2.184,3.04-3.472a2.256,2.256,0,1,1,3.395,2.972l-4.737,5.411A2.256,2.256,0,0,1,195.183,260.742Z" transform="translate(-125.424 -175.377)"/><g transform="translate(79.709 75.184)"><path class="j" d="M268.317,254.474H244.156a2.256,2.256,0,0,1,0-4.512h24.161a2.256,2.256,0,0,1,0,4.512Z" transform="translate(-241.9 -249.962)"/><path class="j" d="M259.435,275.036h-15.28a2.256,2.256,0,0,1,0-4.512h15.28a2.256,2.256,0,0,1,0,4.512Z" transform="translate(-241.899 -264.339)"/></g><g transform="translate(30.568 18.907)"><path class="b" d="M98.38,67.372h-17.6a2.256,2.256,0,0,1,0-4.512h17.6a2.256,2.256,0,1,1,0,4.512Z" transform="translate(-78.522 -62.86)"/><path class="b" d="M98.38,88.215h-17.6a2.256,2.256,0,0,1,0-4.512h17.6a2.256,2.256,0,1,1,0,4.512Z" transform="translate(-78.522 -77.434)"/><path class="b" d="M98.38,109.058h-17.6a2.256,2.256,0,0,1,0-4.512h17.6a2.256,2.256,0,1,1,0,4.512Z" transform="translate(-78.522 -92.008)"/><path class="b" d="M98.38,148.55h-17.6a2.256,2.256,0,0,1,0-4.512h17.6a2.256,2.256,0,1,1,0,4.512Z" transform="translate(-78.522 -119.621)"/><path class="b" d="M98.38,169.394h-17.6a2.256,2.256,0,0,1,0-4.512h17.6a2.256,2.256,0,1,1,0,4.512Z" transform="translate(-78.522 -134.196)"/><path class="b" d="M98.38,190.238h-17.6a2.256,2.256,0,0,1,0-4.512h17.6a2.256,2.256,0,1,1,0,4.512Z" transform="translate(-78.522 -148.77)"/><path class="b" d="M98.38,229.73h-17.6a2.256,2.256,0,0,1,0-4.512h17.6a2.256,2.256,0,1,1,0,4.512Z" transform="translate(-78.522 -176.384)"/><path class="b" d="M98.38,250.572h-17.6a2.256,2.256,0,0,1,0-4.512h17.6a2.256,2.256,0,1,1,0,4.512Z" transform="translate(-78.522 -190.957)"/><path class="b" d="M98.38,271.415h-17.6a2.256,2.256,0,0,1,0-4.512h17.6a2.256,2.256,0,1,1,0,4.512Z" transform="translate(-78.522 -205.531)"/><path class="b" d="M241.92,87.011H217.6a2.256,2.256,0,0,1,0-4.512H241.92a2.256,2.256,0,0,1,0,4.512Z" transform="translate(-174.191 -76.592)"/></g><path class="f" d="M387.507,282.792a3.154,3.154,0,0,1-3.145,3.145h-31.29a3.154,3.154,0,0,1-3.145-3.145V216.657a3.154,3.154,0,0,1,3.145-3.145h31.29a3.154,3.154,0,0,1,3.145,3.145v66.135Z" transform="translate(-237.725 -149.292)"/><path class="k" d="M355.9,282.792V216.657a3.154,3.154,0,0,1,3.145-3.145h-5.968a3.154,3.154,0,0,0-3.145,3.145v66.135a3.154,3.154,0,0,0,3.145,3.145h5.968A3.154,3.154,0,0,1,355.9,282.792Z" transform="translate(-237.725 -149.292)"/><path class="b" d="M391.485,413.15V416.7a1.508,1.508,0,0,0,1.5,1.5h9.572a1.508,1.508,0,0,0,1.5-1.5V413.15Z" transform="translate(-266.783 -288.882)"/><rect class="l" width="37.58" height="50.158" transform="translate(112.203 74.41)"/><rect class="m" width="5.968" height="50.158" transform="translate(112.203 74.41)"/><path class="b" d="M400.071,227.241H389.378a2.256,2.256,0,1,1,0-4.512h10.693a2.256,2.256,0,0,1,0,4.512Z" transform="translate(-263.733 -155.736)"/><g transform="translate(117.021 78.999)"><path class="n" d="M393.941,274.664a1.508,1.508,0,0,1-1.5,1.5H367.455a1.508,1.508,0,0,1-1.5-1.5V264.149a1.508,1.508,0,0,1,1.5-1.5h24.982a1.508,1.508,0,0,1,1.5,1.5v10.515Z" transform="translate(-365.951 -262.645)"/><path class="n" d="M386.786,321.848h-18.4a2.256,2.256,0,0,1,0-4.512h18.4a2.256,2.256,0,0,1,0,4.512Z" transform="translate(-366.073 -300.886)"/><path class="n" d="M386.786,343.963h-18.4a2.256,2.256,0,0,1,0-4.512h18.4a2.256,2.256,0,0,1,0,4.512Z" transform="translate(-366.073 -316.349)"/><path class="n" d="M386.786,366.077h-18.4a2.256,2.256,0,0,1,0-4.512h18.4a2.256,2.256,0,0,1,0,4.512Z" transform="translate(-366.073 -331.812)"/></g><g transform="translate(117.022 78.999)"><path class="h" d="M371.92,274.664V264.149a1.508,1.508,0,0,1,1.5-1.5h-5.968a1.508,1.508,0,0,0-1.5,1.5v10.515a1.508,1.508,0,0,0,1.5,1.5h5.968A1.508,1.508,0,0,1,371.92,274.664Z" transform="translate(-365.952 -262.645)"/><path class="h" d="M372.094,319.592a2.256,2.256,0,0,1,2.256-2.256h-5.968a2.256,2.256,0,0,0,0,4.512h5.968A2.256,2.256,0,0,1,372.094,319.592Z" transform="translate(-366.074 -300.886)"/><path class="h" d="M372.094,341.707a2.256,2.256,0,0,1,2.256-2.256h-5.968a2.256,2.256,0,0,0,0,4.512h5.968A2.256,2.256,0,0,1,372.094,341.707Z" transform="translate(-366.074 -316.349)"/><path class="h" d="M372.094,363.821a2.256,2.256,0,0,1,2.256-2.256h-5.968a2.256,2.256,0,0,0,0,4.512h5.968A2.256,2.256,0,0,1,372.094,363.821Z" transform="translate(-366.074 -331.812)"/></g><path class="g" d="M135.509,27.715a1.508,1.508,0,0,1-1.5,1.5H79.564a1.508,1.508,0,0,1-1.5-1.5V23.5a1.508,1.508,0,0,1,1.5-1.5h54.441a1.508,1.508,0,0,1,1.5,1.5Z" transform="translate(-47.631 -15.383)"/></g></svg>