<svg xmlns="http://www.w3.org/2000/svg" width="20" height="20" viewBox="0 0 20 20">
  <g id="Sales" transform="translate(0)">
    <path id="Path_869" data-name="Path 869" d="M20,10q0-1.582-.006-3.163-.005-2.508-.01-5.017,0-.575,0-1.15A.682.682,0,0,0,19.31,0H10.075a.835.835,0,0,0-.6.241c-.119.116-.235.235-.352.352L7.613,2.107,3.142,6.578c-.967.967-1.948,1.922-2.9,2.9l-.047.047a.682.682,0,0,0,0,.95l.925.925,2.223,2.223,2.7,2.7,2.327,2.327c.377.377.746.768,1.134,1.134l.017.017a.682.682,0,0,0,.95,0l.925-.925,2.223-2.223,2.7-2.7,2.327-2.327c.377-.377.768-.746,1.134-1.134l.017-.017a.629.629,0,0,0,.1-.132A.644.644,0,0,0,20,10Zm-2.072.45L15.7,12.675,13,15.38l-2.327,2.327c-.224.224-.456.443-.683.667l-.442-.442L7.325,15.709,4.62,13,2.293,10.677c-.224-.224-.443-.456-.667-.683l.442-.442L4.291,7.329,7,4.624,9.323,2.3c.318-.318.654-.627.966-.954h8.351l0,2.491q0,2.508.01,5.017,0,.436,0,.873Z" fill="#fff"/>
    <path id="Path_870" data-name="Path 870" d="M185.99,101.079l-2.574,2.574-4.1,4.1-.939.939a.672.672,0,0,0,.95.95l2.574-2.574,4.1-4.1.939-.939a.672.672,0,1,0-.95-.95Z" transform="translate(-171.056 -96.852)" fill="#fff"/>
    <path id="Path_871" data-name="Path 871" d="M215.786,84.619a1.88,1.88,0,0,0,1.481-1.749.63.63,0,0,0,0-.076.575.575,0,0,0,0-.068,1.9,1.9,0,0,0-1.266-1.7,1.861,1.861,0,0,0-2.013.555,1.862,1.862,0,0,0,1.8,3.036Zm-.7-2.243c.04-.023.082-.055.125-.076s.1-.02.117-.025h0l.072,0,.072,0h0c.018.005.081.019.117.025s.085.054.125.076c.018.016.036.032.053.049s.033.035.049.053c.023.04.055.082.076.125s.02.1.025.117v0c0,.024,0,.048,0,.072s0,.048,0,.072v0c-.005.018-.019.081-.025.117s-.054.085-.076.125c-.016.018-.032.036-.049.053s-.035.033-.053.049c-.04.023-.082.055-.125.076s-.1.02-.117.025h0l-.072,0-.072,0h0c-.018-.005-.081-.019-.117-.025s-.085-.054-.125-.076c-.018-.016-.036-.032-.053-.049s-.033-.035-.049-.053c-.023-.04-.055-.082-.076-.125s-.02-.1-.025-.117v0c0-.024,0-.048,0-.072s0-.048,0-.072v0c.005-.018.019-.081.025-.117s.054-.085.076-.125c.016-.018.032-.036.049-.053S215.07,82.392,215.087,82.376Z" transform="translate(-205.001 -77.691)" fill="#fff"/>
    <path id="Path_872" data-name="Path 872" d="M277.268,253.064a1.9,1.9,0,0,0-1.266-1.7,1.861,1.861,0,0,0-2.013.555,1.864,1.864,0,1,0,3.278,1.287.627.627,0,0,0,0-.076A.572.572,0,0,0,277.268,253.064Zm-1.494.437c-.017.017-.035.033-.053.049-.04.023-.082.055-.125.076s-.1.02-.117.025h0l-.072,0-.072,0h0c-.018-.005-.081-.019-.117-.025s-.085-.054-.125-.076c-.018-.016-.036-.032-.053-.049s-.033-.035-.049-.053c-.023-.04-.055-.082-.076-.125s-.02-.1-.025-.117v0c0-.024,0-.048,0-.072s0-.048,0-.072v0c.005-.018.019-.081.025-.117s.054-.085.076-.125c.016-.018.032-.036.049-.053s.035-.033.053-.049c.04-.023.082-.055.125-.076s.1-.02.117-.025h0l.072,0,.072,0h0c.018.005.081.019.117.025s.085.054.125.076c.018.016.036.032.053.049s.033.035.049.053c.023.04.055.082.076.125s.02.1.025.117v0c0,.024,0,.048,0,.072s0,.048,0,.072v0c-.005.018-.019.081-.025.117s-.054.085-.076.125C275.806,253.467,275.791,253.484,275.774,253.5Z" transform="translate(-262.601 -241.216)" fill="#fff"/>
  </g>
</svg>
