<svg xmlns="http://www.w3.org/2000/svg" width="20.786" height="20.786" viewBox="0 0 20.786 20.786">
  <g id="feedback" transform="translate(0)">
    <path id="Path_880" data-name="Path 880" d="M272.576,272.4l-2.452,2.452-1.011-1.011a.609.609,0,0,0-.861.861l1.441,1.441a.609.609,0,0,0,.861,0l2.883-2.883a.609.609,0,0,0-.861-.861Zm0,0" transform="translate(-257.191 -261.17)" fill="#25aae1"/>
    <path id="Path_881" data-name="Path 881" d="M18.139,7.456H14.263V2.647A2.65,2.65,0,0,0,11.616,0H2.647A2.65,2.65,0,0,0,0,2.647v6A2.651,2.651,0,0,0,2.038,11.22v1.5a.609.609,0,0,0,1.04.431l1.86-1.86H6.523V16.1A2.65,2.65,0,0,0,9.17,18.747h6.678l1.86,1.86a.609.609,0,0,0,1.04-.431v-1.5A2.652,2.652,0,0,0,20.786,16.1v-6a2.65,2.65,0,0,0-2.647-2.647ZM4.686,10.074a.608.608,0,0,0-.431.178l-1,1v-.568a.609.609,0,0,0-.609-.609A1.431,1.431,0,0,1,1.218,8.644v-6A1.431,1.431,0,0,1,2.647,1.218h8.969a1.431,1.431,0,0,1,1.429,1.429V7.456H9.17a2.65,2.65,0,0,0-2.646,2.617ZM19.568,16.1a1.431,1.431,0,0,1-1.429,1.429.609.609,0,0,0-.609.609v.568l-1-1a.608.608,0,0,0-.431-.178H9.17A1.431,1.431,0,0,1,7.741,16.1v-6A1.431,1.431,0,0,1,9.17,8.674h8.969A1.431,1.431,0,0,1,19.568,10.1Zm0,0" fill="#25aae1"/>
  </g>
</svg>
