<svg xmlns="http://www.w3.org/2000/svg" width="19" height="19" viewBox="0 0 19 19">
  <g id="Help" transform="translate(-0.003 0)">
    <g id="Group_1102" data-name="Group 1102" transform="translate(0.003 0)">
      <g id="Group_1101" data-name="Group 1101">
        <path id="Path_883" data-name="Path 883" d="M18.928,17.206l-1.3-3.8a9.283,9.283,0,1,0-8.33,5.172h.015a9.32,9.32,0,0,0,4.1-.961l3.8,1.3a1.363,1.363,0,0,0,.444.075,1.355,1.355,0,0,0,1.276-1.794Zm-1.119.6a.218.218,0,0,1-.234.054l-4.022-1.382a.563.563,0,0,0-.446.035,8.161,8.161,0,1,1,3.41-3.409.563.563,0,0,0-.035.446l1.382,4.022A.217.217,0,0,1,17.809,17.806Z" transform="translate(-0.003 0)" fill="#25aae1"/>
      </g>
    </g>
    <g id="Group_1104" data-name="Group 1104" transform="translate(8.639 13.461)">
      <g id="Group_1103" data-name="Group 1103">
        <path id="Path_884" data-name="Path 884" d="M233.283,362.748a.563.563,0,1,0,.563.563A.57.57,0,0,0,233.283,362.748Z" transform="translate(-232.719 -362.748)" fill="#25aae1"/>
      </g>
    </g>
    <g id="Group_1106" data-name="Group 1106" transform="translate(6.4 4.738)">
      <g id="Group_1105" data-name="Group 1105">
        <path id="Path_885" data-name="Path 885" d="M175.2,127.674a2.806,2.806,0,0,0-2.8,2.8.563.563,0,0,0,1.126,0,1.676,1.676,0,1,1,1.676,1.676.563.563,0,0,0-.563.563v2.3a.563.563,0,1,0,1.127,0v-1.791a2.8,2.8,0,0,0-.563-5.548Z" transform="translate(-172.395 -127.674)" fill="#25aae1"/>
      </g>
    </g>
  </g>
</svg>
