<svg xmlns="http://www.w3.org/2000/svg" width="20.616" height="26" viewBox="0 0 20.616 26">
  <g id="Orders" transform="translate(-53.02)">
    <g id="Group_1066" data-name="Group 1066" transform="translate(53.02)">
      <g id="Group_1065" data-name="Group 1065">
        <path id="Path_858" data-name="Path 858" d="M73.624,21.441,72.462,6.81a1.829,1.829,0,0,0-1.815-1.681H68.354v-.1a5.026,5.026,0,0,0-10.052,0v.1H56.009a1.828,1.828,0,0,0-1.815,1.679L53.032,21.443A4.234,4.234,0,0,0,57.254,26H69.4a4.234,4.234,0,0,0,4.221-4.559ZM59.825,5.026a3.5,3.5,0,0,1,7.006,0v.1H59.825ZM71.391,23.608a2.683,2.683,0,0,1-1.989.869H57.254a2.71,2.71,0,0,1-2.7-2.916L55.712,6.926a.3.3,0,0,1,.3-.275H58.3V8.527a.761.761,0,0,0,1.523,0V6.652h7.006V8.527a.761.761,0,0,0,1.523,0V6.652h2.294a.3.3,0,0,1,.3.277l1.161,14.631A2.683,2.683,0,0,1,71.391,23.608Z" transform="translate(-53.02)" fill="#25aae1"/>
      </g>
    </g>
    <g id="Group_1068" data-name="Group 1068" transform="translate(59.674 12.69)">
      <g id="Group_1067" data-name="Group 1067">
        <path id="Path_859" data-name="Path 859" d="M191.136,250.116a.761.761,0,0,0-1.077,0l-3.4,3.4-1.307-1.307a.761.761,0,0,0-1.077,1.077l1.846,1.846a.761.761,0,0,0,1.077,0l3.939-3.939A.761.761,0,0,0,191.136,250.116Z" transform="translate(-184.052 -249.893)" fill="#25aae1"/>
      </g>
    </g>
  </g>
</svg>
