<svg xmlns="http://www.w3.org/2000/svg" width="22.007" height="19.604" viewBox="0 0 22.007 19.604">
  <g id="Products" transform="translate(-96.811 -112.572)">
    <path id="Path_868" data-name="Path 868" d="M118.513,121.97a.616.616,0,0,0,.3-.509.608.608,0,0,0-.27-.521l-2.514-1.671,2.517-1.671a.61.61,0,0,0-.021-1.029l-6.437-3.908a.609.609,0,0,0-.6-.02l-3.676,1.908-3.676-1.908a.61.61,0,0,0-.6.02L97.1,116.568a.61.61,0,0,0-.019,1.031l2.533,1.67-2.533,1.67a.611.611,0,0,0,.019,1.031l3.01,1.821v3.668a.611.611,0,0,0,.305.528l7.089,4.107a.61.61,0,0,0,.611,0l7.1-4.108a.6.6,0,0,0,.294-.528v-3.683Zm-3.853.911-2.911,1.774-2.659-1.4,5.811-3.274,2.168,1.44Zm-6.845-6.943,5.873,3.329-5.873,3.309-5.852-3.309Zm3.934-2.056,5.323,3.231-2.169,1.441-5.809-3.293Zm-7.868,0,2.657,1.379-5.788,3.293-2.189-1.443Zm-3.13,6.1,5.79,3.273-2.661,1.4-2.912-1.775-2.4-1.454Zm.583,4.55,2.2,1.343a.612.612,0,0,0,.6.019l3.064-1.609v6.222l-5.871-3.4Zm7.091,5.977v-6.224l3.064,1.609a.612.612,0,0,0,.284.07.572.572,0,0,0,.306-.089l2.217-1.358v2.589Zm0,0" fill="#25aae1"/>
  </g>
</svg>
