<svg xmlns="http://www.w3.org/2000/svg" width="22.118" height="21.211" viewBox="0 0 22.118 21.211">
  <path id="Routes" d="M5.315,18.28a10.274,10.274,0,0,0,4.348-8.045,4.831,4.831,0,0,0-9.662,0A10.294,10.294,0,0,0,4.348,18.28a.864.864,0,0,0,.967,0ZM1.728,10.235a3.1,3.1,0,1,1,6.206,0,8.329,8.329,0,0,1-3.1,6.232,8.477,8.477,0,0,1-3.1-6.232Zm15.1.388h-.811a3.566,3.566,0,1,1,0-7.132h1a2.627,2.627,0,1,0,0-1.728h-1a5.294,5.294,0,1,0,0,10.588h.811a3.566,3.566,0,1,1,0,7.132H4.831a.864.864,0,1,0,0,1.728H16.823a5.294,5.294,0,1,0,0-10.588Zm2.668-8.895a.9.9,0,1,1-.9.9A.9.9,0,0,1,19.491,1.728Zm0,0" transform="translate(0 0)" fill="#25aae1"/>
</svg>
