<svg xmlns="http://www.w3.org/2000/svg" width="20" height="11.4" viewBox="0 0 20 11.4">
  <g id="Suppliers" transform="translate(0 -114)">
    <path id="Path_882" data-name="Path 882" d="M8.142,181.393a.64.64,0,0,0,.916.894l1.56-1.6h0l.025-.027.007-.008.022-.028.007-.01.013-.02.013-.02.006-.011.017-.03,0-.01.015-.033h0l.005-.014.011-.029.006-.02.007-.024c0-.008,0-.016.005-.024s0-.014,0-.022,0-.017,0-.025,0-.014,0-.021,0-.016,0-.024,0-.015,0-.022,0-.016,0-.023,0-.016,0-.023,0-.015,0-.022,0-.016,0-.024,0-.014,0-.021,0-.017,0-.025,0-.015,0-.022,0-.016-.005-.024l-.007-.024-.006-.02L10.755,180l-.005-.014h0l-.015-.033,0-.01-.017-.03-.006-.011-.013-.02-.013-.02-.007-.01-.022-.028-.007-.008-.025-.027h0l-1.56-1.6a.64.64,0,1,0-.916.894l.5.513h-8a.64.64,0,1,0,0,1.28h8Z" transform="translate(0 -61.44)" fill="#25aae1"/>
    <path id="Path_883" data-name="Path 883" d="M61.28,118.488a2.9,2.9,0,0,0-2.9-2.9H56.2V114H45.37v1.56H43v1.28h2.37a1.28,1.28,0,0,0,1.28-1.28v-.28h8.27v7.04H50.89a2.12,2.12,0,0,0-3.78,0h-.46v-.28a1.28,1.28,0,0,0-1.28-1.28H43v1.28h2.37v1.56H46.9a2.12,2.12,0,0,0,4.192,0h4.888a2.12,2.12,0,0,0,4.192,0h1.1ZM49,124.12a.84.84,0,1,1,.84-.84A.841.841,0,0,1,49,124.12Zm9.381-7.251A1.62,1.62,0,0,1,60,118.488v3.832h-.03a2.12,2.12,0,0,0-3.77-.02v-5.431Zm-.3,7.251a.84.84,0,1,1,.84-.84A.841.841,0,0,1,58.08,124.12Z" transform="translate(-41.28)" fill="#25aae1"/>
  </g>
</svg>
