<svg xmlns="http://www.w3.org/2000/svg" width="20.818" height="20" viewBox="0 0 20.818 20">
  <path id="Visits" d="M10.409,20A22.5,22.5,0,0,1,3.05,18.94C1.055,18.213,0,17.2,0,16c0-.968.712-1.839,2.06-2.517a15.663,15.663,0,0,1,5.227-1.326v2.027C4.071,14.57,2.082,15.427,2.082,16c0,.79,3.731,2,8.327,2s8.327-1.21,8.327-2c0-.573-1.99-1.43-5.205-1.816V12.157a15.663,15.663,0,0,1,5.227,1.326c1.348.678,2.06,1.549,2.06,2.517,0,1.2-1.055,2.213-3.05,2.94A22.5,22.5,0,0,1,10.409,20Zm1.041-3H9.368V9.9A5.068,5.068,0,0,1,5.205,5a5.111,5.111,0,0,1,5.2-5,5.112,5.112,0,0,1,5.205,5A5.068,5.068,0,0,1,11.45,9.9V17ZM10.409,2A3.067,3.067,0,0,0,7.287,5a3.066,3.066,0,0,0,3.122,3,3.066,3.066,0,0,0,3.122-3A3.067,3.067,0,0,0,10.409,2Z" fill="#25aae1"/>
</svg>
