<svg xmlns="http://www.w3.org/2000/svg" width="18.338" height="18.338" viewBox="0 0 18.338 18.338">
  <g id="Outlets" transform="translate(-0.72 -0.4)">
    <path id="Shape" d="M3.93,5.239H1.31A1.311,1.311,0,0,1,0,3.93V1.31A1.311,1.311,0,0,1,1.31,0H3.93a1.311,1.311,0,0,1,1.31,1.31V3.93A1.311,1.311,0,0,1,3.93,5.239ZM1.31,1.31V3.93H3.93V1.31Z" transform="translate(0.72 0.4)" fill="#4c4c4c"/>
    <path id="Shape-2" data-name="Shape" d="M3.93,5.239H1.31A1.311,1.311,0,0,1,0,3.93V1.31A1.311,1.311,0,0,1,1.31,0H3.93a1.311,1.311,0,0,1,1.31,1.31V3.93A1.311,1.311,0,0,1,3.93,5.239ZM1.31,1.31V3.93H3.93V1.31Z" transform="translate(7.269 0.4)" fill="#4c4c4c"/>
    <path id="Shape-3" data-name="Shape" d="M3.93,5.239H1.31A1.311,1.311,0,0,1,0,3.93V1.31A1.311,1.311,0,0,1,1.31,0H3.93a1.311,1.311,0,0,1,1.31,1.31V3.93A1.311,1.311,0,0,1,3.93,5.239ZM1.31,1.31V3.93H3.93V1.31Z" transform="translate(13.819 0.4)" fill="#4c4c4c"/>
    <path id="Shape-4" data-name="Shape" d="M3.93,5.239H1.31A1.311,1.311,0,0,1,0,3.93V1.31A1.311,1.311,0,0,1,1.31,0H3.93a1.311,1.311,0,0,1,1.31,1.31V3.93A1.311,1.311,0,0,1,3.93,5.239ZM1.31,1.31V3.93H3.93V1.31Z" transform="translate(0.72 6.949)" fill="#4c4c4c"/>
    <path id="Shape-5" data-name="Shape" d="M3.93,5.239H1.31A1.311,1.311,0,0,1,0,3.93V1.31A1.311,1.311,0,0,1,1.31,0H3.93a1.311,1.311,0,0,1,1.31,1.31V3.93A1.311,1.311,0,0,1,3.93,5.239ZM1.31,1.31V3.93H3.93V1.31Z" transform="translate(7.269 6.949)" fill="#4c4c4c"/>
    <path id="Shape-6" data-name="Shape" d="M3.93,5.239H1.31A1.311,1.311,0,0,1,0,3.93V1.31A1.311,1.311,0,0,1,1.31,0H3.93a1.311,1.311,0,0,1,1.31,1.31V3.93A1.311,1.311,0,0,1,3.93,5.239ZM1.31,1.31V3.93H3.93V1.31Z" transform="translate(13.819 6.949)" fill="#4c4c4c"/>
    <path id="Shape-7" data-name="Shape" d="M3.93,5.239H1.31A1.311,1.311,0,0,1,0,3.93V1.31A1.311,1.311,0,0,1,1.31,0H3.93a1.311,1.311,0,0,1,1.31,1.31V3.93A1.311,1.311,0,0,1,3.93,5.239ZM1.31,1.31V3.93H3.93V1.31Z" transform="translate(0.72 13.499)" fill="#4c4c4c"/>
    <path id="Shape-8" data-name="Shape" d="M3.93,5.239H1.31A1.311,1.311,0,0,1,0,3.93V1.31A1.311,1.311,0,0,1,1.31,0H3.93a1.311,1.311,0,0,1,1.31,1.31V3.93A1.311,1.311,0,0,1,3.93,5.239ZM1.31,1.31V3.93H3.93V1.31Z" transform="translate(13.819 13.499)" fill="#4c4c4c"/>
    <path id="Shape-9" data-name="Shape" d="M3.93,5.239H1.31A1.311,1.311,0,0,1,0,3.93V1.31A1.311,1.311,0,0,1,1.31,0H3.93a1.311,1.311,0,0,1,1.31,1.31V3.93A1.311,1.311,0,0,1,3.93,5.239ZM1.31,1.31V3.93H3.93V1.31Z" transform="translate(7.269 13.499)" fill="#4c4c4c"/>
  </g>
</svg>
