<svg xmlns="http://www.w3.org/2000/svg" width="22.007" height="22.007" viewBox="0 0 22.007 22.007">
  <g id="Stocks" transform="translate(0 0)">
    <path id="Path_870" data-name="Path 870" d="M174.267,428.122h-1.3a.43.43,0,1,1,0-.86h1.3a.43.43,0,1,1,0,.86Zm0,0" transform="translate(-165.123 -408.897)" fill="#4c4c4c"/>
    <path id="Path_871" data-name="Path 871" d="M135.16,428.122a.43.43,0,1,1,.3-.126A.431.431,0,0,1,135.16,428.122Zm0,0" transform="translate(-128.939 -408.897)" fill="#4c4c4c"/>
    <path id="Path_872" data-name="Path 872" d="M174.267,182.122h-1.3a.43.43,0,0,1,0-.86h1.3a.43.43,0,1,1,0,.86Zm0,0" transform="translate(-165.123 -173.471)" fill="#4c4c4c"/>
    <path id="Path_873" data-name="Path 873" d="M135.16,182.122a.43.43,0,1,1,.3-.126A.432.432,0,0,1,135.16,182.122Zm0,0" transform="translate(-128.939 -173.471)" fill="#4c4c4c"/>
    <path id="Path_874" data-name="Path 874" d="M20.718,3.954H11.863a1.283,1.283,0,0,0-.43.074V1.289A1.291,1.291,0,0,0,10.144,0H1.289A1.291,1.291,0,0,0,0,1.289v8.854A1.284,1.284,0,0,0,.329,11a1.284,1.284,0,0,0-.329.86v8.854a1.291,1.291,0,0,0,1.289,1.289h8.855a1.284,1.284,0,0,0,.86-.329,1.284,1.284,0,0,0,.86.329h8.855a1.291,1.291,0,0,0,1.289-1.289V5.244a1.291,1.291,0,0,0-1.289-1.289ZM6.957.86V4.452H4.477V.86Zm3.617,19.858a.43.43,0,0,1-.43.43H1.29a.43.43,0,0,1-.43-.43V11.863a.43.43,0,0,1,.43-.43H3.617v4.022a.43.43,0,0,0,.43.43H7.386a.43.43,0,0,0,.43-.43V11.433h2.328a.43.43,0,0,1,.43.43Zm-6.1-9.284h2.48v3.592H4.477Zm6.1-6.19v4.9a.43.43,0,0,1-.43.43H1.29a.43.43,0,0,1-.43-.43V1.289A.43.43,0,0,1,1.29.86H3.617V4.882a.43.43,0,0,0,.43.43H7.386a.43.43,0,0,0,.43-.43V.86h2.328a.43.43,0,0,1,.43.43Zm6.957-.43V8.406h-2.48V4.814Zm3.617,15.9a.43.43,0,0,1-.43.43H11.863a.43.43,0,0,1-.43-.43V5.244a.43.43,0,0,1,.43-.43h2.328V8.836a.43.43,0,0,0,.43.43H17.96a.43.43,0,0,0,.43-.43V4.814h2.328a.43.43,0,0,1,.43.43Zm0,0" transform="translate(0 0)" fill="#4c4c4c"/>
    <path id="Path_875" data-name="Path 875" d="M420.267,428.122h-1.3a.43.43,0,1,1,0-.86h1.3a.43.43,0,1,1,0,.86Zm0,0" transform="translate(-400.549 -408.897)" fill="#4c4c4c"/>
  </g>
</svg>
